HIERARCHY
ROOT SpineBase
{
  OFFSET 0.000000 0.000000 0.000000
  CHANNELS 6 Xposition Yposition Zposition Zrotation Xrotation Yrotation
  JOINT SpineMid
  {
    OFFSET -0.000000 34.499217 0.000000
    CHANNELS 3 Zrotation Xrotation Yrotation
    JOINT SpineShoulder
    {
      OFFSET -0.202227 25.763902 -0.697217
      CHANNELS 3 Zrotation Xrotation Yrotation
      JOINT Neck
      {
        OFFSET -0.111542 8.590041 -0.572874
        CHANNELS 3 Zrotation Xrotation Yrotation
        JOINT Head
        {
          OFFSET 4.136744 9.830443 7.906545
          CHANNELS 3 Zrotation Xrotation Yrotation
          End Site
          {
            OFFSET 0 0 0
          }
        }
      }
      JOINT ShoulderLeft
      {
        OFFSET -0.650429 -0.420410 -9.734767
        CHANNELS 3 Zrotation Xrotation Yrotation
        JOINT ElbowLeft
        {
          OFFSET 15.377326 -22.091838 -11.893633
          CHANNELS 3 Zrotation Xrotation Yrotation
          JOINT WristLeft
          {
            OFFSET 8.140007 -19.327747 -1.595400
            CHANNELS 3 Zrotation Xrotation Yrotation
            JOINT HandLeft
            {
              OFFSET 2.219397 -9.098480 1.193006
              CHANNELS 3 Zrotation Xrotation Yrotation
              JOINT HandTipLeft
              {
                OFFSET 2.262628 -6.040642 -0.366628
                CHANNELS 3 Zrotation Xrotation Yrotation
                End Site
                {
                  OFFSET 0 0 0
                }
              }
              JOINT ThumbLeft
              {
                OFFSET -2.437305 0.214353 -1.078557
                CHANNELS 3 Zrotation Xrotation Yrotation
                End Site
                {
                  OFFSET 0 0 0
                }
              }
            }
          }
        }
      }
      JOINT ShoulderRight
      {
        OFFSET 7.527639 -1.530315 -14.795300
        CHANNELS 3 Zrotation Xrotation Yrotation
        JOINT ElbowRight
        {
          OFFSET 8.527436 -18.142403 -8.258252
          CHANNELS 3 Zrotation Xrotation Yrotation
          JOINT WristRight
          {
            OFFSET 7.399207 -26.863882 -0.002947
            CHANNELS 3 Zrotation Xrotation Yrotation
            JOINT HandRight
            {
              OFFSET 2.168072 -7.430411 1.522188
              CHANNELS 3 Zrotation Xrotation Yrotation
              JOINT HandTipRight
              {
                OFFSET 0.338278 -6.731063 0.488863
                CHANNELS 3 Zrotation Xrotation Yrotation
                End Site
                {
                  OFFSET 0 0 0
                }
              }
              JOINT ThumbRight
              {
                OFFSET 1.765655 1.009620 -2.161829
                CHANNELS 3 Zrotation Xrotation Yrotation
                End Site
                {
                  OFFSET 0 0 0
                }
              }
            }
          }
        }
      }
    }
  }
  JOINT HipLeft
  {
    OFFSET -5.650496 2.145378 -4.948225
    CHANNELS 3 Zrotation Xrotation Yrotation
    JOINT KneeLeft
    {
      OFFSET 24.456892 -23.106327 -12.097574
      CHANNELS 3 Zrotation Xrotation Yrotation
      JOINT AnkleLeft
      {
        OFFSET -5.818237 -34.924788 -3.880273
        CHANNELS 3 Zrotation Xrotation Yrotation
        JOINT FootLeft
        {
          OFFSET 6.781689 -4.028001 -2.617285
          CHANNELS 3 Zrotation Xrotation Yrotation
          End Site
          {
            OFFSET 0 0 0
          }
        }
      }
    }
  }
  JOINT HipRight
  {
    OFFSET 4.347977 1.226716 -1.521019
    CHANNELS 3 Zrotation Xrotation Yrotation
    JOINT KneeRight
    {
      OFFSET 4.765597 -32.173757 -1.462087
      CHANNELS 3 Zrotation Xrotation Yrotation
      JOINT AnkleRight
      {
        OFFSET 4.468783 -25.450143 -12.431050
        CHANNELS 3 Zrotation Xrotation Yrotation
        JOINT FootRight
        {
          OFFSET -6.336524 -2.932113 -14.800635
          CHANNELS 3 Zrotation Xrotation Yrotation
          End Site
          {
            OFFSET 0 0 0
          }
        }
      }
    }
  }
}
MOTION
Frames: 9
Frame Time: 0.033333
46.696388 64.685533 293.591884 0.000000 0.000000 -18.920325 -0.000000 0.000000 18.920325 -0.000000 0.000000 0.000000 -0.000000 0.000000 0.000000 0.000000 0.000000 0.000000 -0.000000 0.000000 0.000000 -0.000000 0.000000 0.000000 -0.000000 0.000000 0.000000 -0.000000 0.000000 0.000000 0.000000 0.000000 0.000000 0.000000 0.000000 0.000000 -0.000000 0.000000 0.000000 -0.000000 0.000000 0.000000 -0.000000 0.000000 0.000000 -0.000000 0.000000 0.000000 0.000000 0.000000 0.000000 0.000000 0.000000 0.000000 -0.000000 0.000000 18.920325 -0.000000 0.000000 0.000000 -0.000000 0.000000 0.000000 0.000000 0.000000 0.000000 -0.000000 0.000000 18.920325 -0.000000 0.000000 0.000000 -0.000000 0.000000 0.000000 0.000000 0.000000 0.000000
47.124354 64.914005 293.352936 0.428007 0.476161 -18.489309 -0.254927 -0.587307 18.486224 -0.000000 0.000000 0.000000 1.350549 -1.687259 -0.362420 0.000000 0.000000 0.000000 -0.000000 0.000000 0.000000 -0.000000 0.000000 0.000000 3.040693 -0.964104 0.187780 -2.142087 -0.129065 -0.608312 0.000000 0.000000 0.000000 0.000000 0.000000 0.000000 -0.962984 -0.591419 0.156380 1.925542 0.186298 -0.282710 0.952699 0.922807 0.633872 0.753636 0.336659 -0.310173 0.000000 0.000000 0.000000 0.000000 0.000000 0.000000 -0.995886 -1.803771 18.061999 2.655085 0.404133 0.295921 -7.973961 -3.249830 -2.543354 0.000000 0.000000 0.000000 -0.843999 -1.262620 18.444577 0.295388 -0.358441 0.120439 0.757408 -0.271630 0.880647 0.000000 0.000000 0.000000
47.508802 65.103583 293.162428 0.805722 0.890197 -18.122412 -0.488968 -1.096597 18.111474 -0.000000 0.000000 0.000000 2.389882 -2.923945 -0.649782 0.000000 0.000000 0.000000 -0.609934 0.859465 0.930872 2.005030 -1.431345 -1.236169 4.128912 -1.316115 0.651043 -3.925525 -0.092767 -1.037475 0.000000 0.000000 0.000000 0.000000 0.000000 0.000000 -1.783315 -1.103061 0.279428 3.706480 0.277848 -0.557567 1.695543 1.799693 1.175984 1.277984 0.474681 -0.603956 0.000000 0.000000 0.000000 0.000000 0.000000 0.000000 -1.899272 -3.307368 17.337706 4.913945 0.742704 0.468737 -14.213493 -4.840931 -3.218360 0.000000 0.000000 0.000000 -1.633749 -2.339558 18.021635 0.612937 -0.603455 0.217397 1.446732 -0.693997 1.616248 0.000000 0.000000 0.000000
47.849735 65.254268 293.020360 1.131719 1.240452 -17.812827 -0.767639 -0.656279 17.802038 -0.200229 -0.850244 -0.013576 3.097606 -3.672320 -0.879448 0.000000 0.000000 0.000000 -0.797214 1.127420 1.221229 2.864130 -1.965309 -1.646985 5.385131 -1.923606 0.891819 -5.308510 0.082479 -1.310192 0.000000 0.000000 0.000000 0.000000 0.000000 0.000000 -2.460478 -1.533122 0.372609 5.318397 0.285651 -0.813523 2.271369 2.619037 1.637537 1.573290 0.424787 -0.875299 0.000000 0.000000 0.000000 0.000000 0.000000 0.000000 -2.689888 -4.506802 16.757519 6.768709 0.994646 0.538513 -19.248605 -5.467286 -2.276644 0.000000 0.000000 0.000000 -2.363242 -3.234850 17.651774 0.955479 -0.729624 0.293008 2.059548 -1.259577 2.195194 0.000000 0.000000 0.000000
48.147151 65.366058 292.926731 1.404810 1.525602 -17.554552 -0.904438 -0.777963 17.537478 0.148175 -0.243593 0.026692 3.005526 -4.723717 -1.058337 0.000000 0.000000 0.000000 -1.359237 0.477950 1.336624 3.638722 -2.373106 -1.928809 6.081968 -2.504139 1.068319 -6.268310 0.378866 -1.445937 0.000000 0.000000 0.000000 0.000000 0.000000 0.000000 -3.453911 -2.689395 0.352195 6.737401 0.221910 -1.040355 2.720116 3.369370 2.027872 1.640258 0.194157 -1.121312 0.000000 0.000000 0.000000 0.000000 0.000000 0.000000 -3.350975 -5.400153 16.330278 8.214166 1.145114 0.522853 -23.474427 -5.465905 0.234119 0.000000 0.000000 0.000000 -3.027674 -3.952240 17.335451 1.325586 -0.732732 0.348963 2.587719 -1.960494 2.606225 0.000000 0.000000 0.000000
48.401050 65.438954 292.881542 1.624047 1.744639 -17.342506 -0.978560 -0.851828 17.321211 0.156145 -0.275432 0.033505 2.884337 -4.577299 -1.204775 0.000000 0.000000 0.000000 -1.520476 0.401092 1.375611 4.335611 -2.651598 -2.087514 6.213281 -3.062982 1.175615 -6.794216 0.785776 -1.460506 0.000000 0.000000 0.000000 0.000000 0.000000 0.000000 -3.982079 -3.085770 0.367972 7.941814 0.098881 -1.229174 3.076889 4.039644 2.354646 1.477213 -0.214750 -1.341806 0.000000 0.000000 0.000000 0.000000 0.000000 0.000000 -3.869500 -5.986942 16.063004 9.246778 1.184780 0.435605 -27.179677 -4.989214 4.478202 0.000000 0.000000 0.000000 -3.623323 -4.495171 17.073319 1.725596 -0.609609 0.386455 3.023594 -2.788799 2.838456 0.000000 0.000000 0.000000
48.699061 65.529779 292.777756 1.911749 1.948274 -16.060834 -1.031778 -0.889274 16.037850 0.155946 -0.303852 0.044358 1.851717 -3.470199 -1.152043 0.000000 0.000000 0.000000 -2.937836 -1.142085 0.980477 5.838961 -2.186727 -2.230305 6.009699 -3.353139 1.281937 -6.925115 1.029975 -1.460268 0.000000 0.000000 0.000000 0.000000 0.000000 0.000000 -5.071576 -3.500760 0.555467 9.874396 -0.323893 -1.700294 3.297225 4.526980 2.636214 0.804029 -0.990225 -1.498843 0.000000 0.000000 0.000000 0.000000 0.000000 0.000000 -4.534655 -6.200767 14.952406 9.803785 1.046838 0.184124 -28.302195 -4.265636 7.556424 0.000000 0.000000 0.000000 -4.525964 -5.068739 15.714905 2.406050 -0.171096 0.410109 3.802480 -4.582854 2.190007 0.000000 0.000000 0.000000
48.881213 65.558600 292.800110 2.075701 1.987446 -16.426289 -0.954208 -0.890803 16.408818 0.142799 -0.326465 0.053268 0.482755 -1.854515 -0.973048 0.000000 0.000000 0.000000 -3.660933 -2.098298 0.534096 6.001967 -2.982625 -2.588395 5.234576 -2.304251 1.498390 -6.198311 1.719155 -1.139775 0.000000 0.000000 0.000000 0.000000 0.000000 0.000000 -5.717776 -3.846860 0.538890 10.891870 -0.150479 -1.832230 3.888993 3.909168 2.673590 0.065318 -1.641790 -1.494777 0.000000 0.000000 0.000000 0.000000 0.000000 0.000000 -4.826699 -6.365970 15.394495 9.695863 1.187521 0.086784 -29.229312 -2.299158 15.166358 0.000000 0.000000 0.000000 -5.097380 -5.307048 16.055989 2.972324 0.148613 0.393980 4.216597 -5.880984 1.653907 0.000000 0.000000 0.000000
48.884842 65.424523 292.967013 1.989548 1.929113 -19.560458 -0.744310 -0.829862 19.552645 0.109076 -0.347978 0.054729 -0.151637 -0.272571 -1.190171 0.000000 0.000000 0.000000 -2.444358 -1.115662 0.544375 6.452426 -3.219492 -2.281307 2.607501 -3.692865 1.249025 -4.792850 2.444321 -0.930093 0.000000 0.000000 0.000000 0.000000 0.000000 0.000000 -5.527634 -4.072193 0.293399 11.011938 0.023069 -1.658766 3.710466 4.816539 2.887456 -1.752587 -3.710357 -1.831515 0.000000 0.000000 0.000000 0.000000 0.000000 0.000000 -4.250568 -6.510827 18.445054 9.600291 1.230684 0.192808 -35.279026 -0.798478 30.023162 0.000000 0.000000 0.000000 -4.994606 -5.140956 19.264389 3.145922 0.235641 0.401488 3.152742 -4.316154 2.154063 0.000000 0.000000 0.000000
